<svg xmlns="http://www.w3.org/2000/svg" width="670" height="448" viewBox="0 0 670 448" font-family="ui-monospace, SFMono-Regular, Menlo, Consolas, 'DejaVu Sans Mono', monospace">
<rect width="670" height="448" rx="12" fill="#0d1117" stroke="#30363d"/>
<text x="20" y="44.0" font-size="15" fill="#c5ff4a" xml:space="preserve">⠀⠀⠀⠀⠀⢸⠓⢄⡀⠀⠀⠀⠀⠀⠀⠀⠀⠀⠀⠀⠀⠀⠀⠀⠀⠀⠀⠀⠀⠀</text>
<text x="20" y="64.0" font-size="15" fill="#c5ff4a" xml:space="preserve">⠀⠀⠀⠀⠀⢸⠀⠀⠑⢤⡀⠀⠀⠀⠀⠀⠀⠀⠀⠀⠀⠀⠀⠀⠀⠀⠀⠀⠀⠀</text>
<text x="20" y="84.0" font-size="15" fill="#c5ff4a" xml:space="preserve">⠀⠀⠀⠀⠀⢸⡆⠀⠀⠀⠙⢤⡷⣤⣦⣀⠤⠖⠚⡿⠁⠀⠀⠀⠀⠀⠀⠀⠀⠀</text>
<text x="20" y="104.0" font-size="15" fill="#c5ff4a" xml:space="preserve">⣠⡿⠢⢄⡀⠀⡇⠀⠀⠀⠀⠀⠉⠀⠀⠀⠀⠀⠸⠷⣶⠂⠀⠀⠀⣀⣀⠀⠀⠀</text>
<text x="20" y="124.0" font-size="15" fill="#c5ff4a" xml:space="preserve">⢸⣃⠀⠀⠉⠳⣷⠞⠁⠀⠀⠀⠀⠀⠀⠀⠀⠀⠀⠈⠉⠉⠉⠉⠉⠉⠉⢉⡭⠋</text>
<text x="20" y="144.0" font-size="15" fill="#c5ff4a" xml:space="preserve">⠀⠘⣆⠀⠀⠀⠁⠀⢀⡄⠀⠀⠀⠀⠀⠀⠀⠀⠀⠀⠀⠀⠀⠀⠀⢀⡴⠋⠀⠀</text>
<text x="20" y="164.0" font-size="15" fill="#c5ff4a" xml:space="preserve">⠀⠀⠘⣦⠆⠀⠀⢀⡎⢹⡀⠀⠀⠀⠀⠀⠀⠀⠀⡀⠀⠀⡀⣠⠔⠋⠀⠀⠀⠀</text>
<text x="20" y="184.0" font-size="15" fill="#c5ff4a" xml:space="preserve">⠀⠀⠀⡏⠀⠀⣆⠘⣄⠸⢧⠀⠀⠀⠀⢀⣠⠖⢻⠀⠀⠀⣿⢥⣄⣀⣀⣀⠀⠀</text>
<text x="20" y="204.0" font-size="15" fill="#c5ff4a" xml:space="preserve">⠀⠀⢸⠁⠀⠀⡏⢣⣌⠙⠚⠀⠀⠠⣖⡛⠀⣠⠏⠀⠀⠀⠇⠀⠀⠀⠀⢙⣣⠄</text>
<text x="20" y="224.0" font-size="15" fill="#c5ff4a" xml:space="preserve">⠀⠀⢸⡀⠀⠀⠳⡞⠈⢻⠶⠤⣄⣀⣈⣉⣉⣡⡔⠀⠀⢀⠀⠀⣀⡤⠖⠚⠀⠀</text>
<text x="20" y="244.0" font-size="15" fill="#c5ff4a" xml:space="preserve">⠀⠀⡼⣇⠀⠀⠀⠙⠦⣞⡀⠀⢀⡏⠀⢸⣣⠞⠀⠀⠀⡼⠚⠋⠁⠀⠀⠀⠀⠀</text>
<text x="20" y="264.0" font-size="15" fill="#c5ff4a" xml:space="preserve">⠀⢰⡇⠙⠀⠀⠀⠀⠀⠀⠉⠙⠚⠒⠚⠉⠀⠀⠀⠀⡼⠁⠀⠀⠀⠀⠀⠀⠀⠀</text>
<text x="20" y="284.0" font-size="15" fill="#c5ff4a" xml:space="preserve">⠀⠀⢧⡀⠀⢠⡀⠀⠀⠀⠀⠀⠀⠀⠀⠀⠀⠀⠙⣞⠁⠀⠀⠀⠀⠀⠀⠀⠀⠀</text>
<text x="20" y="304.0" font-size="15" fill="#c5ff4a" xml:space="preserve">⠀⠀⠀⠙⣶⣶⣿⠢⣄⡀⠀⠀⠀⠀⠀⠀⠀⠀⠀⢸⠀⠀⠀⠀⠀⠀⠀⠀⠀⠀</text>
<text x="20" y="324.0" font-size="15" fill="#c5ff4a" xml:space="preserve">⠀⠀⠀⠀⠀⠉⠀⠀⠀⠙⢿⣳⠞⠳⡄⠀⠀⠀⢀⡞⠀⠀⠀⠀⠀⠀⠀⠀⠀⠀</text>
<text x="20" y="344.0" font-size="15" fill="#c5ff4a" xml:space="preserve">⠀⠀⠀⠀⠀⠀⠀⠀⠀⠀⠀⠉⠀⠀⠹⣄⣀⡤⠋⠀⠀⠀⠀⠀⠀⠀⠀⠀⠀⠀</text>
<text x="330.0" y="44.0" font-size="15" font-weight="700" fill="#58a6ff">GitHub</text>
<text x="330.0" y="64.0" font-size="15" fill="#7d8590">├─ </text><text x="357.0" y="64.0" font-size="15" fill="#ffa657">Username</text><text x="438.0" y="64.0" font-size="15" fill="#7d8590"> ➜ </text><text x="474.0" y="64.0" font-size="15" fill="#c9d1d9">rs4t</text>
<text x="330.0" y="84.0" font-size="15" fill="#7d8590">├─ </text><text x="357.0" y="84.0" font-size="15" fill="#ffa657">Uptime</text><text x="420.0" y="84.0" font-size="15" fill="#7d8590"> ➜ </text><text x="456.0" y="84.0" font-size="15" fill="#c9d1d9">1 yr, 7 mos</text>
<text x="330.0" y="104.0" font-size="15" fill="#7d8590">└─ </text><text x="357.0" y="104.0" font-size="15" fill="#ffa657">Location</text><text x="438.0" y="104.0" font-size="15" fill="#7d8590"> ➜ </text><text x="474.0" y="104.0" font-size="15" fill="#c9d1d9">Switzerland</text>
<text x="330.0" y="144.0" font-size="15" font-weight="700" fill="#58a6ff">Contact</text>
<text x="330.0" y="164.0" font-size="15" fill="#7d8590">├─ </text><text x="357.0" y="164.0" font-size="15" fill="#ffa657">Website</text><text x="429.0" y="164.0" font-size="15" fill="#7d8590"> ➜ </text><text x="465.0" y="164.0" font-size="15" fill="#c9d1d9">egorz.com</text>
<text x="330.0" y="184.0" font-size="15" fill="#7d8590">└─ </text><text x="357.0" y="184.0" font-size="15" fill="#ffa657">GitHub</text><text x="420.0" y="184.0" font-size="15" fill="#7d8590"> ➜ </text><text x="456.0" y="184.0" font-size="15" fill="#c9d1d9">github.com/rs4t</text>
<text x="330.0" y="224.0" font-size="15" font-weight="700" fill="#58a6ff">Stats</text>
<text x="330.0" y="244.0" font-size="15" fill="#7d8590">├─ </text><text x="357.0" y="244.0" font-size="15" fill="#ffa657">Public Repos</text><text x="474.0" y="244.0" font-size="15" fill="#7d8590"> ➜ </text><text x="510.0" y="244.0" font-size="15" fill="#c9d1d9">7</text>
<text x="330.0" y="264.0" font-size="15" fill="#7d8590">├─ </text><text x="357.0" y="264.0" font-size="15" fill="#ffa657">Total Stars</text><text x="465.0" y="264.0" font-size="15" fill="#7d8590"> ➜ </text><text x="501.0" y="264.0" font-size="15" fill="#c9d1d9">12</text>
<text x="330.0" y="284.0" font-size="15" fill="#7d8590">├─ </text><text x="357.0" y="284.0" font-size="15" fill="#ffa657">Total Commits</text><text x="483.0" y="284.0" font-size="15" fill="#7d8590"> ➜ </text><text x="519.0" y="284.0" font-size="15" fill="#c9d1d9">74</text>
<text x="330.0" y="304.0" font-size="15" fill="#7d8590">└─ </text><text x="357.0" y="304.0" font-size="15" fill="#ffa657">Followers</text><text x="447.0" y="304.0" font-size="15" fill="#7d8590"> ➜ </text><text x="483.0" y="304.0" font-size="15" fill="#c9d1d9">5</text>
<text x="330.0" y="344.0" font-size="15" font-weight="700" fill="#58a6ff">Top Languages</text>
<text x="330.0" y="364.0" font-size="15" fill="#7d8590">├─ </text><text x="357.0" y="364.0" font-size="15" fill="#ffa657">C++</text><text x="393.0" y="364.0" font-size="15" fill="#7d8590"> ➜ </text><text x="429.0" y="364.0" font-size="15" fill="#c9d1d9">47.0%</text>
<text x="330.0" y="384.0" font-size="15" fill="#7d8590">├─ </text><text x="357.0" y="384.0" font-size="15" fill="#ffa657">Python</text><text x="420.0" y="384.0" font-size="15" fill="#7d8590"> ➜ </text><text x="456.0" y="384.0" font-size="15" fill="#c9d1d9">44.2%</text>
<text x="330.0" y="404.0" font-size="15" fill="#7d8590">├─ </text><text x="357.0" y="404.0" font-size="15" fill="#ffa657">JavaScript</text><text x="456.0" y="404.0" font-size="15" fill="#7d8590"> ➜ </text><text x="492.0" y="404.0" font-size="15" fill="#c9d1d9">3.1%</text>
<text x="330.0" y="424.0" font-size="15" fill="#7d8590">└─ </text><text x="357.0" y="424.0" font-size="15" fill="#ffa657">CSS</text><text x="393.0" y="424.0" font-size="15" fill="#7d8590"> ➜ </text><text x="429.0" y="424.0" font-size="15" fill="#c9d1d9">2.0%</text>
</svg>